<svg width="207" height="56" viewBox="0 0 207 56" fill="none" xmlns="http://www.w3.org/2000/svg">
<path d="M0.417969 45H10.4V35.266L13.438 32.042L21.064 45H32.782L20.32 25.16L31.48 13.256H19.824L10.4 23.982V0.669983H0.417969V45Z" fill="#212529"/>
<path d="M35.1113 45H45.2173V13.256H35.1113V45ZM35.1113 8.85398H45.2173V0.669983H35.1113V8.85398Z" fill="#212529"/>
<path d="M50.0664 45H60.1724V27.206C60.1724 23.424 62.0324 20.758 65.1944 20.758C68.2324 20.758 69.6584 22.742 69.6584 26.152V45H79.7644V27.206C79.7644 23.424 81.5624 20.758 84.7864 20.758C87.8244 20.758 89.2504 22.742 89.2504 26.152V45H99.3564V24.354C99.3564 17.224 95.7604 12.326 88.5684 12.326C84.4764 12.326 81.0664 14.062 78.5864 17.906H78.4624C76.8504 14.496 73.6884 12.326 69.5344 12.326C64.9464 12.326 61.9084 14.496 59.9244 17.782H59.7384V13.256H50.0664V45Z" fill="#212529"/>
<path d="M123.359 45.992C131.543 45.992 136.875 39.668 136.875 29.128C136.875 19.58 131.543 12.326 123.297 12.326C118.957 12.326 116.229 14.124 114.245 16.852H114.059V0.669983H103.953V45H113.625V40.97H113.749C115.733 44.256 119.143 45.992 123.359 45.992ZM120.507 37.994C116.353 37.994 113.749 34.398 113.749 29.128C113.749 23.92 115.919 20.014 120.383 20.014C124.475 20.014 126.645 23.61 126.645 29.066C126.645 34.584 124.475 37.994 120.507 37.994Z" fill="#212529"/>
<path d="M151.193 45.93C155.595 45.93 158.385 44.194 160.679 41.094H160.865V45H170.537V13.256H160.431V30.988C160.431 34.77 158.323 37.374 154.851 37.374C151.627 37.374 150.077 35.452 150.077 31.98V13.256H140.033V34.088C140.033 41.156 143.877 45.93 151.193 45.93Z" fill="#212529"/>
<path d="M190.154 55.974C194.866 55.974 199.02 54.92 201.81 52.44C204.352 50.146 206.026 46.674 206.026 41.9V13.256H196.354V16.666H196.23C194.37 14 191.518 12.326 187.302 12.326C179.428 12.326 173.972 18.898 173.972 28.198C173.972 37.932 180.606 43.264 187.736 43.264C191.58 43.264 193.998 41.714 195.858 39.606H196.106V42.768C196.106 46.612 194.308 48.844 190.03 48.844C186.682 48.844 185.008 47.418 184.45 45.744H174.654C175.646 52.378 181.412 55.974 190.154 55.974ZM190.092 35.762C186.31 35.762 183.83 32.662 183.83 27.888C183.83 23.052 186.31 19.952 190.092 19.952C194.308 19.952 196.54 23.548 196.54 27.826C196.54 32.29 194.494 35.762 190.092 35.762Z" fill="#212529"/>
</svg>
